<svg xmlns="http://www.w3.org/2000/svg" viewBox="0 0 2530.74 496.18"><defs><style>.cls-1{fill:#fff;}.cls-2{fill:#f49025;}.cls-3{fill:#128c88;}.cls-4{fill:#fefefe;}</style></defs><g id="Layer_2" data-name="Layer 2"><g id="Layer_1-2" data-name="Layer 1"><path class="cls-1" d="M188.28,134c0,1.55.05,3.1,0,4.65q-.61,15.57-1.26,31.15-1.14,28.64-2.27,57.26l-1.05,26.83q-1,27.19-2.06,54.39a7.38,7.38,0,0,1-.76,3q-17.88,37-35.71,73.94a6.7,6.7,0,0,1-2.44,2.54l-69,48.84L2.12,487.26A9.19,9.19,0,0,1,0,488.45Q94.32,311.35,188.28,134Z"/><path class="cls-1" d="M194.27,133.87q9.55,17.83,19.11,35.66Q297.3,327,379.87,485.08a5,5,0,0,1,.66,1.95c-.66-.43-1.34-.83-2-1.29L269,408.25c-9.45-6.69-18.89-13.4-28.37-20a11.4,11.4,0,0,1-3.84-4.42c-12.11-24.1-23.48-48.57-35.28-72.82a6.79,6.79,0,0,1-.75-2.74c-.42-11.1-.89-22.2-1.33-33.31q-1.14-28.4-2.25-56.79-.51-12.7-1-25.4-1.08-28.28-2.13-56.55c0-.77-.34-1.6.29-2.29Z"/><path class="cls-2" d="M84.48,496.18a4.61,4.61,0,0,1,1.73-1.56l101.31-72.54c.26-.19.51-.38.78-.56,1.81-1.19,1.27-1.5,3.46.06l57.09,40.87,44.62,31.94c.69.49,1.36,1,2.38,1.79Z"/><path class="cls-1" d="M1625.76,300.46c.12,2.25.27,4.34.27,6.43q0,57.51,0,115c0,8.19,1.22,8.3-7.57,8.15-4.5-.08-10.09,1.9-13.22-.92s-1.1-8.6-1.1-13.06c-.11-24.63-.08-49.26-.08-74.43-3.8.58-4.75,3.93-6.24,6.06q-24.84,35.4-49.3,71.08c-8,11.57-7.85,11.46-21.7,11.46-4.19,0-6.59-1.56-8.84-4.8q-21.69-31.47-43.63-62.78c-4.79-6.89-9.67-13.74-14.65-20.79-2.63,2.21-1.6,4.8-1.6,7q-.12,36.94,0,73.93c0,7.43.65,7.47-7.54,7.28-4.49-.12-10.09,1.86-13.21-.92s-1.14-8.6-1.14-13c-.12-35.6-.08-71.19-.08-106.83v-9.1c1.9-.26,3.08-.38,4.26-.57,12.26-1.94,20.14,2.29,27.3,13.4,18.32,28.59,38.46,56,57.87,83.91,1.91,2.71,4,5.29,6.63,8.68,8.26-11.84,16.21-23.14,24.06-34.49,15.15-22,30.38-43.93,45.34-66.05,2.7-4,5.6-6.06,10.43-5.49C1616.48,300.08,1621.08,298.9,1625.76,300.46Z"/><path class="cls-1" d="M1949.6,430.1h-50.17c-9,0-8.23.22-8.11-7.62.22-13.1-2.21-11.38,11.61-11.42,30.42-.08,60.8,0,91.22,0a58.66,58.66,0,0,0,7.27-.15c9.06-1.11,12-4.46,12.15-13.67.07-4.87.15-9.75,0-14.58-.27-7.2-3.16-10.36-10.4-11.35a58.66,58.66,0,0,0-8.18-.34q-34.21-.06-68.42,0a59.67,59.67,0,0,1-20.56-3.12c-10.92-4-17.59-11.65-18.5-23.57a110.86,110.86,0,0,1-.34-15.45c1-15.8,10.28-25.93,25.89-28.25a95.23,95.23,0,0,1,13.63-.88c31.63-.08,63.23,0,94.87,0,9.18,0,8.49-.8,8.53,8.15,0,10.89.08,10.89-11.08,10.89h-89.39a45.58,45.58,0,0,0-8.19.3c-7.46,1.37-10.28,4.8-10.62,12.41-.8,17.29,2,20.14,19.46,20.14,23.11,0,46.22-.11,69.32.08,8.23.08,16.34,1.1,23.69,5.25,8,4.5,12.6,11.05,13.55,20.26a183.51,183.51,0,0,1,.27,25.47c-.65,15-10.89,22.35-21.13,25.39a59.74,59.74,0,0,1-17.1,2.14C1982.46,430,1966,430.1,1949.6,430.1Z"/><path class="cls-1" d="M1256,300.46c2.36-1.33,4.88-.8,7.27-.8q55.68-.06,111.33,0c1.82,0,3.65,0,5.48.08,2.17.08,3.35,1.1,3.2,3.39,0,.3,0,.61,0,.91,1.22,14.66,1.22,14.66-13.82,14.66h-80.29c-9.9,0-9.9,0-9.9,10.32,0,5.48.27,11-.07,16.44-.31,4.61,1,6.32,6,6.21,16.11-.34,32.25-.12,48.35-.12,12.8,0,25.55.19,38.34-.11,4.84-.11,6.25,1.52,6.09,6.24-.49,15.77,2,13.14-12.79,13.21-26.46.16-52.92,0-79.38.08-6.32,0-6.39.12-6.47,6.47-.08,8.84,0,17.67,0,26.46,0,8,.15,7.16,7.69,7.16h86.69c2.13,0,4.27,0,6.4.08s3.39,1,3.27,3.35a13.79,13.79,0,0,0,0,1.82c.69,13.83.69,13.83-12.87,13.83q-54.3,0-108.62,0c-4.11,0-6.54-.19-6.51-5.67.27-40.47.16-80.94.19-121.45A8.36,8.36,0,0,1,1256,300.46Z"/><path class="cls-1" d="M1051,364.42c0-19.19,0-38.34,0-57.53,0-7.11.07-7.31,6.66-7.19,5.4.08,12.3-2.32,15.87,1.18s1.07,10.35,1.18,15.76c.19,8.83,0,17.67.08,26.46,0,9.44-1.1,8.41,8.07,8.41,25.24,0,50.48.08,75.76,0,5.41,0,12.26,2.24,15.84-1s1.11-10.32,1.22-15.69c.19-9.74.23-19.49,0-29.2-.08-4.07.65-6.39,5.41-6,5.71.5,12.87-2.2,16.86,1,4.31,3.43,1.45,10.82,1.49,16.41.19,35,.11,70,.07,105,0,8.72,1,8.15-7.53,8-5.11-.12-11.54,2.21-15-1.07s-1.14-9.78-1.21-14.85c-.2-12.18,0-24.36-.08-36.51,0-6.54-.12-6.66-6.24-6.66q-44.26-.06-88.52,0c-6.06,0-6.13.15-6.17,6.74,0,14.92,0,29.81,0,44.73,0,7.54-.07,7.77-7.16,7.58-5.36-.11-12.18,2.4-15.68-1.29-3-3.24-.84-9.86-.88-15C1050.88,397.28,1051,380.87,1051,364.42Z"/><path class="cls-1" d="M996.44,300.31c.64,5.82,2.43,12.87-.46,16.9s-10.2,1.37-15.57,1.37c-26.46.15-52.92.08-79.38.08a58.56,58.56,0,0,0-7.27.11c-8.19,1.07-11.84,5-11.88,13.29q-.23,32.83,0,65.71c0,8.07,3.16,11.46,11.15,12.79a48.25,48.25,0,0,0,8.15.42q43.8.06,87.6,0c8.49,0,8.08-.64,8.11,7.69,0,11.39.12,11.39-11.53,11.39-28.9,0-57.8,0-86.69,0a87.76,87.76,0,0,1-11.8-.72C870,427,858.65,419.13,858.2,398.11c-.5-22.19-.42-44.43,0-66.62.42-22.69,14.62-29.66,29.73-31.26,8.23-.84,16.41-.57,24.6-.61,24.94-.11,49.87,0,74.81,0C990.27,299.66,993.31,299.17,996.44,300.31Z"/><path class="cls-1" d="M463.13,430.1c8.68-13.9,16.44-26.5,24.36-39Q514.73,348,542.05,305c5-7.88,18.81-7.88,23.79,0q38.32,60.81,76.49,121.71c.46.73,1.33,1.34.38,3.32-6.66,0-13.82-.23-20.94.07-4.45.19-5.52-3.08-7.19-5.82Q598.41,398,582.37,371.54,569.8,351,557.28,330.38c-.95-1.56-1.75-3.19-3.85-4.3Q533,359.16,512.5,392.44C505.8,403.29,498.91,414,492.4,425c-2.28,3.84-4.91,5.55-9.44,5.25C476.91,429.79,470.82,430.1,463.13,430.1Z"/><path class="cls-2" d="M2460.05,430c-7.8,0-15-.11-22.23,0-3.92.08-5-2.78-6.55-5.33q-18.49-30.31-37-60.61-11.37-18.61-22.69-37.27c-3.73.95-4.72,4.11-6.21,6.59-18.54,29.92-37.12,59.84-55.39,90-3.05,5.06-6.36,7.42-12.34,6.81-5.4-.53-10.89-.11-16.26-.11-1-3.31,1.3-4.91,2.48-6.81q36.88-58.55,74-117c1.53-2.4,2.21-6.17,5.94-6.28a98.1,98.1,0,0,1,14.55.34c2.62.31,3.16,3.47,4.41,5.48q34,53.91,67.85,107.94C2453.66,418.7,2457.62,423.35,2460.05,430Z"/><path class="cls-1" d="M1670.19,299.62c10.36,0,18.51.12,26.62,0,3.12-.07,5,1.53,7,3.51q16.28,15.93,32.67,31.75c8.3,8,16.67,15.88,25.32,24.1L1792.1,330c9.21-8.79,17.7-18.35,27.34-26.76a13,13,0,0,1,9.74-3.69c7.16.23,14.36.07,23.42.07-8.19,8.19-14.7,15.31-21.86,21.74-11.8,10.55-22.46,22.16-33.84,33.12-6.13,5.91-12.19,11.85-18.54,17.44-3.51,3.09-4.65,6.55-4.53,11.16.26,13.66-.12,27.37.22,41,.12,5-1.63,6.36-6.24,6.05a90.42,90.42,0,0,0-12.75,0c-4.19.31-5-1.56-5-5.29.15-13.67-.15-27.37.19-41a14.74,14.74,0,0,0-5-12c-21.89-21-43.59-42.26-65.37-63.42C1677.35,306,1674.61,303.66,1670.19,299.62Z"/><path class="cls-1" d="M2079.35,300.84c3.35-1.9,6.48-1.18,9.45-1.18q66.52-.06,133.06,0c1.82,0,3.65.08,5.48,0,2.82-.11,3.39,1.45,3.62,4,1.48,15,1.48,15.08-13.33,15.08h-41.92c-7.65,0-7.5-.8-7.5,7.27v93.92a52.92,52.92,0,0,0,0,5.49c.34,3.46-1,5-4.61,4.79-6-.3-13.43,1.75-17.7-1.1s-1.37-10.7-1.41-16.3c-.19-28.85-.07-57.75-.11-86.61,0-7.35-.08-7.39-7.43-7.42-17,0-34,0-51,0-6.51,0-6.55-.12-6.66-6.32C2079.28,308.42,2079.35,304.5,2079.35,300.84Z"/><path class="cls-1" d="M711.39,300.23c1.14,3.24.61,6.32.61,9.33,0,31.29,0,62.59,0,93.88,0,7.47.11,7.54,7.46,7.58,28.25,0,56.5,0,84.75,0,8.41,0,8.19-.76,8.22,7.54,0,11.5.12,11.5-11.38,11.5H696.32c-8.91,0-8,.15-8-7.73V307.5c0-7.76.08-7.88,7.92-7.84C701.3,299.7,706.44,299,711.39,300.23Z"/><path class="cls-3" d="M2530.68,365.44c0,19.19,0,38.34,0,57.53,0,6.59-.19,6.81-6.47,6.78-5.41,0-12.11,2.32-15.84-1.18s-1.33-10.4-1.37-15.77q-.18-52.47,0-105c0-8.83.08-8.91,9.1-8.91,17.25,0,14.51-1.29,14.62,14.51C2530.79,330.76,2530.68,348.08,2530.68,365.44Z"/><path class="cls-4" d="M754,0l0,.07L753.89,0Z"/></g></g></svg>